<svg xmlns="http://www.w3.org/2000/svg" shape-rendering="geometricPrecision" text-rendering="geometricPrecision" image-rendering="optimizeQuality" fill-rule="evenodd" clip-rule="evenodd" viewBox="0 0 512.001 452.388"><path fill-rule="nonzero" d="M276.915 436.667c-32.989-9.896-62.965-28.911-87.619-55.815 6.176.566 12.784.957 19.82 1.158 32.31.95 63.167-3.299 91.339-11.814 29.561-8.938 56.688-22.777 79.927-40.41 23.979-18.197 43.561-40.302 57.239-65.171 12.232-22.234 19.839-46.769 21.809-72.836a195.63 195.63 0 0112.994 13.486c19.513 22.317 33.012 48.301 37.716 75.029 4.855 27.594.456 55.851-16.115 81.723-5.048 7.88-11.248 15.519-18.685 22.824l8.165 49.068a15.522 15.522 0 01-.8 8.562c-3.133 8.017-12.172 11.976-20.189 8.844l-55.504-21.826c-44.846 17.675-89.637 19.315-130.097 7.178z"/><path fill="#ED8A85" d="M212.522 382.091c51.415 47.307 122.9 61.071 194.383 30.609l61.284 24.098-9.594-57.65c57.022-49.859 43.787-119.135-1.727-167.885-3.555 18.854-10.111 36.746-19.247 53.352-13.678 24.869-33.26 46.974-57.239 65.171-23.239 17.633-50.366 31.472-79.927 40.41-27.181 8.215-56.861 12.459-87.933 11.895z"/><path fill-rule="nonzero" d="M369.951 55.167c38.686 33.165 61.879 78.348 60.427 127.705l-.003.171c-1.516 49.407-27.413 93.189-68.065 124.036-39.714 30.136-93.647 47.912-152.384 46.184-15.058-.442-29.669-1.978-43.591-4.684-11.876-2.309-23.388-5.475-34.398-9.545L25.551 371.528l31.95-75.985c-17.241-15.38-31.223-33.198-41.066-52.706C5.175 220.521-.707 196.009.068 170.392 1.561 120.961 27.462 77.157 68.13 46.297c85.639-64.984 220.169-61.131 301.821 8.87z"/><path fill="#33C4F3" d="M220.09 15.665c110.235 3.244 197.422 77.965 194.731 166.89-2.688 88.931-94.233 158.398-204.469 155.155-27.75-.815-54.238-5.665-77.796-15.127l-79.802 24.375 23.519-55.933c-38.601-30.581-62.068-73.423-60.652-120.206 2.686-88.93 94.234-158.395 204.469-155.154z"/><path fill-rule="nonzero" d="M129.63 216.936c-5.367 0-9.719-4.352-9.719-9.72s4.352-9.719 9.719-9.719h119.8c5.368 0 9.72 4.351 9.72 9.719 0 5.368-4.352 9.72-9.72 9.72h-119.8zm0-68.927c-5.367 0-9.719-4.352-9.719-9.72 0-5.367 4.352-9.719 9.719-9.719h171.179c5.368 0 9.719 4.352 9.719 9.719 0 5.368-4.351 9.72-9.719 9.72H129.63z"/></svg>