<svg width="39" height="39" viewBox="0 0 39 39" fill="none" xmlns="http://www.w3.org/2000/svg">
<g clip-path="url(#clip0_350_2)">
<path d="M29.8753 18C30.2256 18 30.4592 17.8932 30.6928 17.6796C32.7948 15.7573 34.6633 13.0874 30.576 9.24272C28.9411 7.74757 27.3061 7 25.788 7C23.9195 7 22.4014 8.17476 21.3503 9.13592C21.1168 9.34951 21 9.56311 21 9.8835C21 10.2039 21.1168 10.4175 21.3503 10.6311L29.0578 17.6796C29.2914 17.8932 29.6417 18 29.8753 18ZM25.788 9.13592C26.7222 9.13592 27.7733 9.6699 28.9411 10.7379C31.1599 12.767 31.1599 13.9417 29.8753 15.3301L23.9195 9.8835C24.6202 9.34951 25.2041 9.13592 25.788 9.13592Z" fill="black"/>
<path d="M24.9827 29C27.8336 29 30.8034 27.6821 34.3671 24.0879C40.5443 17.8578 40.5443 10.6694 34.3671 4.43933C31.635 1.68374 28.4276 0.126237 25.1014 0.00642925C21.5377 -0.113379 17.974 1.44413 14.8854 4.43933C7.52037 11.8674 10.015 16.3003 12.5096 20.9729C12.866 21.5719 13.5787 21.8115 14.1727 21.4521C14.7666 21.0927 15.0042 20.3738 14.6478 19.7748C12.0344 15.1023 10.4901 12.2269 16.5485 5.99684C19.1619 3.36106 22.0129 2.04317 24.9827 2.16298C27.7149 2.28278 30.3283 3.60067 32.7041 5.99684C36.3866 9.71089 39.3564 15.5815 32.7041 22.2907C27.1209 27.9217 23.5572 27.2029 18.6867 23.9681C18.0928 23.6086 17.38 23.7284 17.0237 24.3275C16.6673 24.9265 16.7861 25.6454 17.38 26.0048C19.8746 27.9217 22.3693 29 24.9827 29Z" fill="black"/>
<path d="M2.51563 39C3.39063 39 4.48438 38.8844 5.79688 38.5376C6.125 38.422 6.45313 38.1908 6.5625 37.8439C7.4375 35.185 9.40625 35.185 9.51563 35.185C9.84375 35.185 10.1719 35.0694 10.3906 34.7225C10.6094 34.4913 10.7187 34.1445 10.6094 33.7977C10.6094 33.7977 10.3906 32.4104 11.5938 31.2543C12.0313 30.7919 12.0313 30.0983 11.7031 29.6358C11.2656 29.1734 10.6094 29.1734 10.1719 29.5202C8.96875 30.6763 8.64062 32.0636 8.53125 32.9884C7.4375 33.2197 5.79688 34.1445 4.8125 36.4567C3.82813 36.6879 2.73437 36.8035 2.1875 36.8035C2.07812 36.1098 2.29688 34.6069 2.73438 33.104L13.6719 20.9653C14.1094 20.5029 14.1094 19.8092 13.6719 19.3468C13.2344 18.8844 12.5781 18.8844 12.1406 19.3468L0.875001 31.6012C0.765626 31.7168 0.656251 31.948 0.656251 32.0636C-0.218749 35.4162 -0.218749 37.4971 0.656251 38.3064C0.875001 38.7688 1.53125 39 2.51563 39Z" fill="black"/>
<path d="M17 28.5C17 28.8978 16.7893 29.2794 16.4142 29.5607C16.0391 29.842 15.5304 30 15 30C14.4696 30 13.9609 29.842 13.5858 29.5607C13.2107 29.2794 13 28.8978 13 28.5C13 28.1022 13.2107 27.7206 13.5858 27.4393C13.9609 27.158 14.4696 27 15 27C15.5304 27 16.0391 27.158 16.4142 27.4393C16.7893 27.7206 17 28.1022 17 28.5Z" fill="black"/>
</g>
<defs>
<clipPath id="clip0_350_2">
<rect width="39" height="39" fill="white" transform="matrix(-1 0 0 1 39 0)"/>
</clipPath>
</defs>
</svg>
