<?xml version="1.0" encoding="iso-8859-1"?>
<!-- Uploaded to: SVG Repo, www.svgrepo.com, Generator: SVG Repo Mixer Tools -->
<svg version="1.1" id="Layer_1" xmlns="http://www.w3.org/2000/svg" xmlns:xlink="http://www.w3.org/1999/xlink" 
	 viewBox="0 0 512 512" xml:space="preserve">
<path style="fill:#D9DCDF;" d="M399.49,129.902v260.033c0,28.613,22.677,52.552,51.287,53.029
	c29.225,0.488,53.07-23.056,53.07-52.171V164.688c0-19.211-15.574-34.786-34.786-34.786H399.49z"/>
<g>
	<path style="fill:#F6F6F7;" d="M469.062,129.902H277.741v191.321h156.535V164.688C434.276,145.476,449.85,129.902,469.062,129.902z
		"/>
	<path style="fill:#F6F6F7;" d="M399.49,390.794v-6.522V129.902V69.028H112.51H8.153v321.766c0,28.818,23.361,52.178,52.178,52.178
		h391.338C422.851,442.972,399.49,419.612,399.49,390.794z"/>
</g>
<rect x="8.153" y="69.028" style="fill:#FF8C78;" width="391.338" height="130.446"/>
<rect x="60.331" y="234.259" style="fill:#8E959F;" width="104.357" height="86.964"/>
<path d="M503.847,281.546c4.504,0,8.153-3.649,8.153-8.153V164.688c0-23.676-19.262-42.938-42.938-42.938h-61.418V69.028
	c0-4.504-3.649-8.153-8.153-8.153H8.153C3.649,60.875,0,64.524,0,69.028v247.847c0,4.504,3.649,8.153,8.153,8.153
	s8.153-3.649,8.153-8.153V207.626h375.032v182.309v0.859c0,17.348,7.36,33.009,19.121,44.025H60.331
	c-24.276,0-44.025-19.75-44.025-44.026v-30.437c0-4.504-3.649-8.153-8.153-8.153S0,355.853,0,360.357v30.437
	c0,33.267,27.064,60.331,60.331,60.331h391.338c0,0,0.001,0,0.002,0c0.003,0,0.008,0,0.011,0c15.929,0,30.911-6.126,42.287-17.313
	C505.596,422.377,512,407.1,512,390.794v-73.919c0-4.504-3.649-8.153-8.153-8.153c-4.504,0-8.153,3.649-8.153,8.153v73.919
	c0,11.899-4.673,23.048-13.158,31.392c-8.392,8.255-19.469,12.712-31.247,12.624c-1.701-0.014-3.401-0.13-5.088-0.342
	c-21.651-2.765-38.558-21.811-38.558-44.532v-60.559h26.633c4.504,0,8.153-3.649,8.153-8.153V164.688
	c0-14.686,11.947-26.633,26.633-26.633c14.686,0,26.633,11.947,26.633,26.633v108.705
	C495.694,277.896,499.344,281.546,503.847,281.546z M16.306,191.321V77.18h375.032v114.14H16.306z M426.123,164.688V313.07h-18.48
	V138.055h27.759C429.595,145.38,426.123,154.636,426.123,164.688z"/>
<path d="M112.51,95.66c-4.504,0-8.153,3.649-8.153,8.153v38.836L66.521,98.507c-4.824-5.627-14.343-2.088-14.343,5.306v60.875
	c0,4.504,3.649,8.153,8.153,8.153s8.153-3.649,8.153-8.153v-38.836l37.836,44.141c4.829,5.634,14.343,2.081,14.343-5.306v-60.875
	C120.662,99.31,117.013,95.66,112.51,95.66z"/>
<path d="M182.081,111.966c4.504,0,8.153-3.649,8.153-8.153c0-4.504-3.649-8.153-8.153-8.153h-43.482
	c-4.504,0-8.153,3.649-8.153,8.153v60.875c0,4.504,3.649,8.153,8.153,8.153h43.482c4.504,0,8.153-3.649,8.153-8.153
	c0-4.504-3.649-8.153-8.153-8.153h-35.329v-18.48h17.936c4.504,0,8.153-3.649,8.153-8.153c0-4.504-3.649-8.153-8.153-8.153h-17.936
	v-9.783H182.081z"/>
<path d="M279.981,95.974c-4.329-1.243-8.843,1.269-10.078,5.598l-10.842,37.943l-8.536-21.339c-1.239-3.096-4.236-5.125-7.57-5.125
	s-6.331,2.03-7.57,5.125l-8.536,21.339l-10.842-37.943c-1.237-4.33-5.753-6.84-10.078-5.598c-4.329,1.237-6.836,5.749-5.598,10.078
	l17.393,60.875c0.958,3.352,3.941,5.724,7.422,5.903c3.5,0.195,6.691-1.877,7.987-5.115l9.823-24.558l9.823,24.558
	c1.244,3.107,4.249,5.125,7.568,5.125c0.139,0,0.278-0.003,0.419-0.011c3.482-0.178,6.465-2.55,7.422-5.903l17.393-60.875
	C286.818,101.724,284.31,97.212,279.981,95.974z"/>
<path d="M347.312,111.966c4.504,0,8.153-3.649,8.153-8.153c0-4.504-3.649-8.153-8.153-8.153H303.83
	c-4.504,0-8.153,3.649-8.153,8.153v34.786c0,4.504,3.649,8.153,8.153,8.153h35.329v9.783H303.83c-4.504,0-8.153,3.649-8.153,8.153
	c0,4.504,3.649,8.153,8.153,8.153h43.482c4.504,0,8.153-3.649,8.153-8.153v-26.089c0-4.504-3.649-8.153-8.153-8.153h-35.329v-18.48
	H347.312z"/>
<path d="M164.688,329.376c4.504,0,8.153-3.649,8.153-8.153v-86.964c0-4.504-3.649-8.153-8.153-8.153H60.331
	c-4.504,0-8.153,3.649-8.153,8.153v86.964c0,4.504,3.649,8.153,8.153,8.153H164.688z M68.484,242.412h88.051v70.658H68.484V242.412z
	"/>
<path d="M225.563,285.894h121.749c4.504,0,8.153-3.649,8.153-8.153c0-4.504-3.649-8.153-8.153-8.153H225.563
	c-4.504,0-8.153,3.649-8.153,8.153C217.41,282.245,221.059,285.894,225.563,285.894z"/>
<path d="M225.563,242.412h121.749c4.504,0,8.153-3.649,8.153-8.153s-3.649-8.153-8.153-8.153H225.563
	c-4.504,0-8.153,3.649-8.153,8.153S221.059,242.412,225.563,242.412z"/>
<path d="M225.563,329.376h121.749c4.504,0,8.153-3.649,8.153-8.153c0-4.504-3.649-8.153-8.153-8.153H225.563
	c-4.504,0-8.153,3.649-8.153,8.153C217.41,325.727,221.059,329.376,225.563,329.376z"/>
<path d="M225.563,372.858h121.749c4.504,0,8.153-3.649,8.153-8.153c0-4.504-3.649-8.153-8.153-8.153H225.563
	c-4.504,0-8.153,3.649-8.153,8.153C217.41,369.209,221.059,372.858,225.563,372.858z"/>
<path d="M43.482,364.705c0,4.504,3.649,8.153,8.153,8.153h121.749c4.504,0,8.153-3.649,8.153-8.153c0-4.504-3.649-8.153-8.153-8.153
	H51.635C47.131,356.552,43.482,360.201,43.482,364.705z"/>
<path d="M51.635,416.34h121.749c4.504,0,8.153-3.649,8.153-8.153s-3.649-8.153-8.153-8.153H51.635c-4.504,0-8.153,3.649-8.153,8.153
	S47.131,416.34,51.635,416.34z"/>
<path d="M225.563,416.34h121.749c4.504,0,8.153-3.649,8.153-8.153s-3.649-8.153-8.153-8.153H225.563
	c-4.504,0-8.153,3.649-8.153,8.153S221.059,416.34,225.563,416.34z"/>
</svg>