<svg width="458" height="458" viewBox="0 0 458 458" fill="none" xmlns="http://www.w3.org/2000/svg">
<g clip-path="url(#clip0_11_2)">
<path d="M228.66 112.692C164.715 112.692 112.692 164.714 112.692 228.659C112.692 292.604 164.715 344.627 228.66 344.627C292.605 344.627 344.628 292.604 344.628 228.659C344.628 164.715 292.605 112.692 228.66 112.692Z" fill="black"/>
<path d="M401.429 228.66L443.896 171.59C446.799 167.69 447.63 162.624 446.128 158C444.625 153.376 440.975 149.767 436.334 148.317L368.433 127.108L369.244 55.976C369.3 51.114 366.995 46.527 363.062 43.669C359.128 40.811 354.053 40.036 349.447 41.592L282.048 64.345L240.895 6.322C238.082 2.356 233.522 0 228.66 0C223.798 0 219.238 2.356 216.425 6.322L175.271 64.346L107.871 41.593C103.264 40.038 98.189 40.812 94.256 43.67C90.323 46.528 88.018 51.115 88.074 55.977L88.886 127.109L20.985 148.318C16.344 149.768 12.694 153.377 11.192 158.001C9.68904 162.625 10.521 167.69 13.424 171.591L55.891 228.661L13.424 285.731C10.521 289.631 9.69004 294.697 11.192 299.321C12.694 303.945 16.345 307.554 20.985 309.004L88.886 330.212L88.074 401.344C88.018 406.206 90.323 410.793 94.256 413.651C98.19 416.508 103.263 417.283 107.871 415.728L175.271 392.975L216.425 450.999C219.238 454.965 223.798 457.321 228.66 457.321C233.522 457.321 238.082 454.965 240.895 450.999L282.049 392.975L349.448 415.728C354.054 417.283 359.129 416.509 363.063 413.651C366.996 410.793 369.301 406.206 369.245 401.345L368.434 330.212L436.335 309.004C440.976 307.554 444.626 303.945 446.129 299.321C447.631 294.697 446.8 289.632 443.897 285.731L401.429 228.66ZM228.66 374.627C148.173 374.627 82.692 309.146 82.692 228.659C82.692 148.172 148.173 82.692 228.66 82.692C309.147 82.692 374.628 148.172 374.628 228.659C374.628 309.146 309.147 374.627 228.66 374.627Z" fill="black"/>
</g>
<defs>
<clipPath id="clip0_11_2">
<rect width="457.32" height="457.32" fill="white"/>
</clipPath>
</defs>
</svg>
