<svg id="Layer_1" data-name="Layer 1" xmlns="http://www.w3.org/2000/svg" viewBox="0 0 122.88 95.35"><defs><style>.cls-1{fill-rule:evenodd;}</style></defs><title>group-chat</title><path class="cls-1" d="M55.09,79.06c-13.52,0-4.62,3.3-2.77-11.39,2.76-22,23.65-22,26.74,0,2,14.09,10.45,11.39-2.79,11.39H71c0,3.62-.56,5.44,3.16,7.46a45.94,45.94,0,0,0,6.28,2.21c4.72-2.82,11.8-1.09,12.59-7.8.13-1.1-2.48-3.82-3.07-5.87-1.27-2-1.72-5.26-.34-7.41.55-.86.33-2.44.33-3.62,0-11.74,20.5-11.74,20.5,0,0,1.47-.33,2.68.46,3.84,1.35,1.95.66,5.4-.48,7.2-.73,2.13-3.52,4.7-3.25,5.87,1.9,9.66,14.52-.4,15.71,14.41H0C1.5,78,18.74,88.66,20.16,76.56c.16-1.36-3.07-5.07-3.82-7.57-1.58-2.53-2.15-6.54-.41-9.22.68-1.06.39-2.6.39-4.05,0-14.54,25.48-14.55,25.48,0,0,1.84-.42,2.88.58,4.32,1.67,2.42.81,6.71-.6,8.95-.9,2.63-4.34,6.09-4,7.57,1.91,9.73,11.78,3.92,16.58,11.2a18.59,18.59,0,0,0,3.34-1.47c3.36-2,2.73-3.93,2.7-7.21l-5.27,0ZM37.29,0H76.05a7,7,0,0,1,7,7V27.06a7,7,0,0,1-7,7H49.36L38.75,43.16a1.17,1.17,0,0,1-1.93-1L37.38,34h-.09a7,7,0,0,1-7-7V7a7,7,0,0,1,7-7ZM86.46,14.74A6.85,6.85,0,0,1,92,21.46v16.7A6.86,6.86,0,0,1,85.17,45h-.24l.57,8.31h0a1,1,0,0,1-1.69.85L73.16,44.74H44.52l6.91-7H80.67a5.82,5.82,0,0,0,5.81-5.81V15.19c0-.15,0-.3,0-.45ZM40.73,21.11a1.18,1.18,0,1,1,0-2.35H67.67a1.18,1.18,0,0,1,0,2.35Zm0-8.08a1.18,1.18,0,1,1,0-2.35H72.81a1.18,1.18,0,1,1,0,2.35ZM76,2.36H37.29A4.64,4.64,0,0,0,32.66,7V27.06a4.64,4.64,0,0,0,4.63,4.63h1.43A1.16,1.16,0,0,1,39.81,33l-.46,6.6L48.1,32a1.18,1.18,0,0,1,.83-.34H76a4.64,4.64,0,0,0,4.63-4.63V7A4.64,4.64,0,0,0,76,2.36Z"/></svg>