<svg viewBox="0 0 64 64" xmlns="http://www.w3.org/2000/svg"><path d="m54.9 39.7 7.3 7.6-32.1 16.1s-4.2 2.1-6.2-1.2c-8-13 31-22.5 31-22.5" fill="#256382"/><path d="m29.2 53.9s-6.1 2.3-5 6.6c1.2 4.5 6.1 1.8 6.1 1.8l30.5-15s-1.7-4.8 1.4-8z" fill="#d9e3e8"/><path d="m34.4 8.9 29.2 30.1-34.5 14.3-22.1-36.6z" fill="#42ade2"/><path d="m60.7 42.6-20.4 8.8 20-9.7zm-.3 2.6-21.7 9.5 21.3-10.4zm.2 1.5-27.7 12.7 27.3-13.6z" fill="#94989b"/><path d="m23.8 62.1c-3.4-7.5 5.3-8.8 5.3-8.8l-22.1-36.6s-5-.1-5 5.4c0 2.3 1 4 1 4z" fill="#428bc1"/><path d="m8.7 32.2-7.3 7.6 32.1 16.1s4.2 2.1 6.2-1.2c8-13-31-22.5-31-22.5" fill="#547725"/><path d="m34.3 46.4s6.1 2.3 5 6.6c-1.2 4.5-6 1.8-6 1.8l-30.5-15s1.7-4.8-1.4-8z" fill="#d9e3e8"/><path d="m29.2 1.4-29.2 30.1 34.5 14.3 22.1-36.6z" fill="#83bf4f"/><path d="m3.2 34.2 20 9.7-20.4-8.8zm.4 2.6 21.2 10.4-21.7-9.5zm-.2 1.5 27.2 13.6-27.7-12.7z" fill="#94989b"/><path d="m39.8 54.6c3.4-7.5-5.3-8.8-5.3-8.8l22.1-36.6s5-.1 5 5.4c0 2.3-1 4-1 4z" fill="#699635"/><path d="m56.7 26 6.1 6.4-27.1 13.5s-3.6 1.7-5.3-1c-6.6-10.9 26.3-18.9 26.3-18.9z" fill="#962c2c"/><path d="m35 38s-5.2 1.9-4.2 5.6c1 3.8 5.1 1.5 5.1 1.5l25.7-12.7s-1.4-4 1.2-6.7z" fill="#d9e3e8"/><path d="m39.4 0 24.6 25.4-29.1 12.1-18.7-30.9z" fill="#ed4c5c"/><path d="m40.1 5.8 4.8 5.3-17.7 6.7-4.2-6.8z" fill="#fff"/><path d="m61.6 28.5-17.2 7.3 16.8-8.2zm-.2 2.2-18.4 7.9 18-8.8zm.2 1.2-23.4 10.7 22.9-11.6z" fill="#94989b"/><path d="m30.5 44.9c-2.8-6.3 4.5-7.4 4.5-7.4l-18.8-30.9s-4.3-.1-4.3 4.5c0 1.9.8 3.4.8 3.4z" fill="#c94747"/></svg>