<svg viewBox="0 0 400 300" xmlns="http://www.w3.org/2000/svg"><path d="m102.15 66.92c-23.88 18.71-38 53.05-35.79 88.91 1.15 18.33 6.37 36.13 20.45 45.68 37.72 25.59 202.11 25.4 224.52-19.32 23.08-46.06 15.15-110.19-37.33-137.19-45.48-23.32-110.16-26.4-171.85 21.92z" fill="#e6e6e6" opacity=".3"/><path d="m262.9 141 25-1.27s4.1-3.73 7.57-3.73 4.74 8.22-5.05 9.48c0 0-14.54 12-37 7.59s-18.04-16.46 9.48-12.07z" fill="#f4a28c"/><ellipse cx="206.06" cy="272.42" fill="#e6e6e6" opacity=".45" rx="123.05" ry="17.17"/><path d="m161.29 182.34 15.71 86.71 5.91.51 1.47-85.21z" fill="#f4a28c"/><path d="m188.07 189.79 70.12 53.37 4.71-3.61-56.44-63.86z" fill="#f4a28c"/><path d="m130.98 60.18-10.33-17.72-5.4 3.22 11.69 27.86 9.06-5.5z" fill="#f4a28c"/><path d="m206.4 157.52a10.12 10.12 0 0 1 -.52-12.86l5.11-6.73c17.18 28.46 57.25 23.25 57.25 23.25l2.76-26.59c-14 3.58-40.24-9-43.58-24s-27.64-19.29-27.64-19.29l-8.19-4.74c-17.9-5.85-26.69 3.42-30.91 15.86s-11.59 29.44-9.48 44.81 5.43 92.26 5.43 92.26l94.01-32.49z" fill="#24285b"/><path d="m176.88 267.75s-2.59 4.68-6.81 5.15-3.86 6.49 2.76 4.78a37.92 37.92 0 0 0 6-2.07 11.06 11.06 0 0 1 5.7-.72 1.84 1.84 0 0 0 1.79-1.08c1.55-2.55-4-6.95-4-6.95z" fill="#68e1fd"/><path d="m257.91 243.05s3.65 3.91 2.8 8.06 5 5.68 5.4-1.14a37.48 37.48 0 0 0 -.11-6.37 11.18 11.18 0 0 1 1.07-5.65 1.84 1.84 0 0 0 -.47-2c-2-2.26-6.83.1-6.83.1z" fill="#68e1fd"/><path d="m186.66 86.7s-41.41-4.88-51.72-29.81l-24.79 20.33s31.66 35.11 63.76 30.87z" fill="#24285b"/><path d="m199.33 71.55a25.9 25.9 0 0 0 -3.91 5.73 2.1 2.1 0 0 0 1.13 2.72 4.65 4.65 0 0 0 5-.6l3.19-2.15a3.76 3.76 0 0 0 1.1-4.2c-.84-2.74-4.9-3.48-6.51-1.5z" fill="#f4a28c"/><path d="m203.52 77.66-3.79 13.67-8.02-4.16 6.37-7.98z" fill="#f4a28c"/><path d="m193.12 85.41s-10.61-1.82-16.49-.92-23.86 14.61-4.18 28.75 41.34 14.55 54.92-2.62c0 0-1-9-11-14.12s-23.25-11.09-23.25-11.09z" fill="#68e1fd"/><path d="m197.62 87.46s-6.1 6 .63 11.81 10-.54 12 7.9 15.19-2 15.19-2-3.07-5.36-6.91-7.45z" opacity=".08"/><path d="m200.72 77.08s1-1.27 1.88-.44-.54 2.66-2 1.85z" fill="#f4a28c"/><path d="m199.33 71.55a7.56 7.56 0 0 1 2.15 4.92c.07 3-6.1 13-1.58 15.44s7.81-.46 10.86 5 10.29.57 11.3-4.18-.68-7.92-6.55-9.61-4.64-10-4.64-10z" fill="#ffd200"/><path d="m197.23 74.35-1.9.58a.67.67 0 0 0 -.33 1.07l1.09 1.2z" fill="#f4a28c"/><path d="m197.25 80.27a6.37 6.37 0 0 0 3.19.16s-1.39 2.35-5.08 2.17z" fill="#ce8172" opacity=".31"/><path d="m192.59 63 17.79-2.11 11.96 13.53-16.28 4.27-6.73-7.14z" fill="#24285b"/><path d="m219.59 74.35s-1.16 8.42 7.78 8.26 12 6.47 12 6.47" fill="none" stroke="#24285b" stroke-miterlimit="10"/><circle cx="239.13" cy="88.17" fill="#68e1fd" r="2.61"/><path d="m93.88 31.76h36.06v7.01h-36.06z" fill="#ffd200" transform="matrix(.81744661 -.57600438 .57600438 .81744661 .12 70.9)"/><path d="m109.19 30.89 9.35 6.13-4.89 3.46-8.77-6.55z" fill="#24285b"/><path d="m155.97 226.04 83.36-31.72 11.31 12.64-94.06 32.55z" fill="#68e1fd"/><path d="m231.86 213.46s-42.07-40.42-39.27-61.9 15.69-27.81 23.15-22.61 10.49 21.63 53.41 23.36l-.91 8.87s-39.46 5.15-57.25-23.25l-5.11 6.73a10.26 10.26 0 0 0 .52 12.86l44.24 49.48z" opacity=".08"/><path d="m120.65 42.46s-1.17-7-5.4-9.2-8.92 5 0 12.42z" fill="#f4a28c"/><g fill="#c9c9c9"><circle cx="346.43" cy="35.27" r="3.95"/><circle cx="277.74" cy="87.46" r="3.95"/><circle cx="120.65" cy="182.43" r="3.95"/><circle cx="43.28" cy="153.48" r="3.95"/><circle cx="323.59" cy="237.1" r="3.95"/><circle cx="53.26" cy="30.35" opacity=".36" r="3.95"/><circle cx="203.52" cy="13.54" opacity=".36" r="3.95"/><circle cx="110.15" cy="109.09" opacity=".36" r="3.95"/><circle cx="76.01" cy="242.91" opacity=".36" r="3.95"/><circle cx="362.28" cy="135.98" opacity=".36" r="3.95"/></g></svg>